<svg xmlns="http://www.w3.org/2000/svg" viewBox="0 0 24 24" fill="none">
  <circle cx="12" cy="12" r="10" fill="#61DAFB"/>
  <path d="M12 2C6.48 2 2 6.48 2 12s4.48 10 10 10 10-4.48 10-10S17.52 2 12 2zm0 18c-4.41 0-8-3.59-8-8s3.59-8 8-8 8 3.59 8 8-3.59 8-8 8z" fill="#61DAFB"/>
  <path d="M12 6c-3.31 0-6 2.69-6 6s2.69 6 6 6 6-2.69 6-6-2.69-6-6-6z" fill="#61DAFB"/>
  <circle cx="12" cy="12" r="3" fill="#61DAFB"/>
  <path d="M12 2v20M2 12h20" stroke="#61DAFB" stroke-width="2" stroke-linecap="round"/>
  <path d="M6.34 6.34l11.32 11.32M17.66 6.34L6.34 17.66" stroke="#61DAFB" stroke-width="2" stroke-linecap="round"/>
</svg>
